<svg width="741" height="192" viewBox="0 0 741 192" fill="none" xmlns="http://www.w3.org/2000/svg">
<path fill-rule="evenodd" clip-rule="evenodd" d="M136.964 37.9307H87.8791C67.2544 37.9307 53.5804 42.6099 45.9025 50.5713L45.9015 50.5723C41.9809 54.6343 40.0331 59.1709 39.0665 62.8076C52.5767 56.3545 68.951 53.2149 87.8468 53.2148H120.183V91.1289H87.8468C67.0036 91.129 53.2842 95.9009 45.6447 104.023L45.6417 104.027C39.429 110.619 38.3123 118.564 38.129 121.645V191.22H0.0323692V124.271C-0.000155586 123.446 -0.0111695 122.28 0.0323692 120.827V71.085C-0.172813 65.9596 0.0591211 43.7902 17.8244 24.9072C33.6538 8.06937 57.5464 0.000976562 87.8791 0.000976562H136.964V37.9307ZM201.132 53.3994C237.022 55.9529 265.499 85.7676 265.548 122.133V191.201H227.452V122.219C227.452 105.111 213.431 91.134 196.132 91.1338C178.833 91.1338 164.812 105.111 164.812 122.219C164.812 139.327 178.833 153.304 196.132 153.304H220.735V191.218H196.132C157.873 191.218 126.7 160.293 126.699 122.203C126.699 84.1134 157.873 53.1885 196.132 53.1885H201.132V53.3994ZM553.796 91.1025H477.152C475.81 91.1429 471.868 91.4976 467.798 93.8672C464.912 95.5479 461.76 98.3533 459.409 103.223H553.733V122.188C553.732 155.467 540.046 173.115 525.575 182.167C511.497 190.974 497.406 191.201 496.724 191.201H417.641V153.288H496.61C497.69 153.251 501.133 152.911 504.723 150.61C507.295 148.962 510.199 146.147 512.365 141.168H417.689V122.203C417.689 88.0886 433.255 70.7318 446.817 62.3154H446.818C461.085 53.4644 475.217 53.1885 477.058 53.1885H553.796V91.1025ZM598.579 191.194H560.484V54.1885H598.579V191.194ZM740.944 191.194H702.849V54.1885H740.944V191.194ZM341.509 53.1895C379.753 53.2068 410.909 84.1241 410.909 122.203V191.186H372.814V122.203C372.814 105.095 358.792 91.1186 341.493 91.1182C324.194 91.1182 310.172 105.095 310.172 122.203V191.186H272.076V122.203C272.076 84.124 303.233 53.2067 341.477 53.1895V53.1885H341.509V53.1895ZM565.546 0C592.818 6.28484e-05 616.666 8.42469 636.315 24.9004C655.898 41.3216 671.025 65.4967 681.405 96.5879L682.087 98.6602C696.183 142.157 696.337 184.243 696.337 186.18V191.18H658.24V186.18C658.24 186.157 658.237 185.534 658.207 184.382C658.177 183.209 658.119 181.497 658.008 179.325C657.787 174.98 657.356 168.802 656.518 161.425C654.89 147.104 651.742 128.384 645.677 109.815L645.08 108.02C637.038 84.1718 626.236 66.6659 613.029 55.1455C599.913 43.7044 584.144 37.9141 565.546 37.9141H560.546V0H565.546ZM33.1281 121.489L33.129 186.22V121.489C33.1395 121.297 33.1536 121.086 33.171 120.859C33.1536 121.086 33.1385 121.297 33.1281 121.489ZM215.734 186.217H196.132V186.218H215.735V158.304L215.734 186.217ZM707.849 186.194H735.944V186.193H707.849V186.194ZM691.128 178.736C691.327 183.107 691.336 185.759 691.336 186.18H691.337C691.337 185.759 691.327 183.107 691.128 178.736ZM422.689 136.168H519.21C519.044 136.897 518.862 137.601 518.671 138.283C518.862 137.601 519.044 136.896 519.21 136.167H422.689V136.168ZM159.859 124.072C159.87 124.295 159.885 124.517 159.901 124.738C159.884 124.507 159.869 124.276 159.858 124.044L159.859 124.072ZM452.536 107.513C452.474 107.746 452.412 107.983 452.353 108.222H452.354C452.473 107.744 452.598 107.276 452.729 106.818L452.536 107.513ZM42.8673 99.7109C42.5725 100.002 42.2843 100.298 42.0021 100.598H42.0031C42.2852 100.298 42.5729 100.002 42.8673 99.7109ZM332.945 87.127C332.215 87.3025 331.494 87.5 330.781 87.7188C331.324 87.5521 331.873 87.3976 332.426 87.2559C332.599 87.2116 332.772 87.1687 332.945 87.127ZM337.538 86.332C337.245 86.3637 336.953 86.3989 336.661 86.4375C336.953 86.3989 337.245 86.3637 337.538 86.332ZM338.701 86.2227C338.404 86.2452 338.109 86.2722 337.814 86.3018C338.109 86.2721 338.405 86.2462 338.702 86.2236L338.701 86.2227ZM476.702 86.1152C476.832 86.1091 476.951 86.1054 477.058 86.1025H548.796L477.058 86.1016C476.951 86.1044 476.832 86.1091 476.702 86.1152ZM5.00405 68.6484C4.98828 69.6623 5.00863 70.4585 5.03237 70.999L5.00405 70C4.99812 69.6069 4.99617 69.1548 5.00405 68.6484ZM33.1281 68.9688C33.1165 69.4784 33.1258 69.7907 33.1281 69.8652L33.1447 70.3379L33.129 69.8652C33.1268 69.7907 33.1167 69.4784 33.1281 68.9688ZM357.855 60.2842C357.761 60.2596 357.667 60.2341 357.572 60.21L357.561 60.207C357.659 60.2322 357.757 60.2585 357.855 60.2842ZM75.632 58.6973C74.3241 58.8044 73.0327 58.9295 71.758 59.0723L73.6828 58.8721C74.3284 58.8096 74.9781 58.7508 75.632 58.6973ZM340.4 58.1982C340.763 58.1921 341.127 58.1886 341.492 58.1885C342.028 58.1886 342.563 58.1957 343.096 58.209C342.565 58.1957 342.034 58.1887 341.5 58.1885H341.484C341.122 58.1886 340.76 58.1922 340.4 58.1982ZM476.653 58.1924C476.624 58.193 476.593 58.1945 476.561 58.1953C476.785 58.1899 476.952 58.1885 477.058 58.1885L476.653 58.1924ZM740.944 37.4258H702.849V0H740.944V37.4258Z" fill="#3a45a0"/>
</svg>
